<svg xmlns="http://www.w3.org/2000/svg" viewBox="0 0 800 500" role="img" aria-labelledby="title desc">
  <title id="title">Placeholder: flujo de Git con ramas y Pull Requests</title>
  <desc id="desc">Ilustración provisional de un flujo de Git con una rama principal, una rama de feature y un Pull Request uniéndolas.</desc>
  <rect width="800" height="500" fill="#0f172a"/>
  <line x1="120" y1="120" x2="120" y2="400" stroke="#475569" stroke-width="4"/>
  <line x1="320" y1="180" x2="320" y2="320" stroke="#6366f1" stroke-width="4"/>
  <path d="M120 180 C 220 180, 220 180, 320 180" fill="none" stroke="#6366f1" stroke-width="4"/>
  <path d="M320 320 C 220 320, 220 320, 120 320" fill="none" stroke="#22c55e" stroke-width="4"/>
  <circle cx="120" cy="120" r="10" fill="#94a3b8"/>
  <circle cx="120" cy="240" r="10" fill="#94a3b8"/>
  <circle cx="120" cy="320" r="10" fill="#22c55e"/>
  <circle cx="120" cy="400" r="10" fill="#94a3b8"/>
  <circle cx="320" cy="180" r="10" fill="#6366f1"/>
  <circle cx="320" cy="250" r="10" fill="#6366f1"/>
  <circle cx="320" cy="320" r="10" fill="#6366f1"/>
  <rect x="470" y="150" width="260" height="130" rx="10" fill="#111827" stroke="#334155" stroke-width="2"/>
  <text x="490" y="185" font-family="sans-serif" font-size="16" fill="#a5b4fc">Pull Request #128</text>
  <line x1="490" y1="200" x2="700" y2="200" stroke="#334155" stroke-width="2"/>
  <text x="490" y="225" font-family="monospace" font-size="14" fill="#94a3b8">+ 214  - 38</text>
  <rect x="490" y="240" width="90" height="26" rx="13" fill="#166534"/>
  <text x="535" y="257" text-anchor="middle" font-family="sans-serif" font-size="12" fill="#bbf7d0">Approved</text>
  <text x="400" y="460" text-anchor="middle" font-family="sans-serif" font-size="20" fill="#94a3b8">flujo de Git y Pull Requests</text>
</svg>
