<svg xmlns="http://www.w3.org/2000/svg" viewBox="0 0 800 500" role="img" aria-labelledby="title desc">
  <title id="title">Placeholder: dos estilos de liderazgo</title>
  <desc id="desc">Ilustración provisional comparando una jerarquía vertical y permanente de CTO con equipo fijo a cargo, y una estructura horizontal y rotativa por misión, con jefes por encima y un equipo pequeño y temporal.</desc>
  <rect width="800" height="500" fill="#f1f5f9"/>

  <line x1="240" y1="480" x2="240" y2="90" stroke="#cbd5e1" stroke-width="2"/>
  <text x="240" y="70" text-anchor="middle" font-family="sans-serif" font-size="14" fill="#64748b">CTO en startups</text>

  <circle cx="180" cy="130" r="36" fill="#4f46e5"/>
  <text x="180" y="135" text-anchor="middle" font-family="sans-serif" font-size="12" fill="#e0e7ff">CTO</text>
  <line x1="180" y1="166" x2="110" y2="230" stroke="#94a3b8" stroke-width="2"/>
  <line x1="180" y1="166" x2="180" y2="230" stroke="#94a3b8" stroke-width="2"/>
  <line x1="180" y1="166" x2="250" y2="230" stroke="#94a3b8" stroke-width="2"/>
  <circle cx="110" cy="260" r="26" fill="#c7d2fe" stroke="#6366f1" stroke-width="2"/>
  <circle cx="180" cy="260" r="26" fill="#c7d2fe" stroke="#6366f1" stroke-width="2"/>
  <circle cx="250" cy="260" r="26" fill="#c7d2fe" stroke="#6366f1" stroke-width="2"/>
  <text x="180" y="310" text-anchor="middle" font-family="sans-serif" font-size="12" fill="#64748b">autoridad permanente, equipo fijo</text>

  <text x="560" y="70" text-anchor="middle" font-family="sans-serif" font-size="14" fill="#64748b">Champion en Buk</text>
  <circle cx="460" cy="120" r="18" fill="#e2e8f0" stroke="#94a3b8" stroke-width="2"/>
  <circle cx="560" cy="105" r="18" fill="#e2e8f0" stroke="#94a3b8" stroke-width="2"/>
  <circle cx="660" cy="120" r="18" fill="#e2e8f0" stroke="#94a3b8" stroke-width="2"/>
  <text x="560" y="150" text-anchor="middle" font-family="sans-serif" font-size="11" fill="#94a3b8">niveles jerárquicos por encima</text>

  <line x1="560" y1="168" x2="560" y2="220" stroke="#cbd5e1" stroke-width="2" stroke-dasharray="4 4"/>
  <circle cx="560" cy="248" r="28" fill="#0d9488"/>
  <text x="560" y="244" text-anchor="middle" font-family="sans-serif" font-size="10" fill="#ccfbf1">Champion</text>
  <text x="560" y="257" text-anchor="middle" font-family="sans-serif" font-size="9" fill="#ccfbf1">(rotativo)</text>

  <line x1="560" y1="248" x2="490" y2="320" stroke="#5eead4" stroke-width="2"/>
  <line x1="560" y1="248" x2="560" y2="330" stroke="#5eead4" stroke-width="2"/>
  <line x1="560" y1="248" x2="630" y2="320" stroke="#5eead4" stroke-width="2"/>
  <circle cx="490" cy="345" r="20" fill="#99f6e4" stroke="#0d9488" stroke-width="1.5"/>
  <circle cx="560" cy="355" r="20" fill="#99f6e4" stroke="#0d9488" stroke-width="1.5"/>
  <circle cx="630" cy="345" r="20" fill="#99f6e4" stroke="#0d9488" stroke-width="1.5"/>
  <text x="560" y="392" text-anchor="middle" font-family="sans-serif" font-size="11" fill="#0f766e">2-3 tripulantes, solo para esta misión</text>

  <rect x="440" y="420" width="240" height="30" rx="15" fill="#f0fdfa" stroke="#5eead4" stroke-width="1.5"/>
  <text x="560" y="440" text-anchor="middle" font-family="sans-serif" font-size="11" fill="#0f766e">siguiente misión: equipo nuevo</text>

  <text x="400" y="480" text-anchor="middle" font-family="sans-serif" font-size="18" fill="#64748b">liderazgo permanente vs. rotativo por misión</text>
</svg>
