<svg xmlns="http://www.w3.org/2000/svg" viewBox="0 0 800 500" role="img" aria-labelledby="title desc">
  <title id="title">Placeholder: computadora Pentium 1 con monitor CRT</title>
  <desc id="desc">Ilustración provisional de una torre beige tipo Pentium 1, monitor de tubo (CRT) y teclado mecánico.</desc>
  <rect width="800" height="500" fill="#f1f5f9"/>
  <rect x="60" y="90" width="380" height="290" rx="10" fill="#e2e8f0" stroke="#94a3b8" stroke-width="3"/>
  <rect x="90" y="120" width="320" height="220" fill="#0f172a"/>
  <rect x="90" y="120" width="320" height="220" fill="none" stroke="#334155" stroke-width="6"/>
  <rect x="150" y="380" width="200" height="18" rx="4" fill="#cbd5e1"/>
  <rect x="470" y="330" width="270" height="90" rx="10" fill="#e2e8f0" stroke="#94a3b8" stroke-width="3"/>
  <g fill="#94a3b8">
    <rect x="485" y="345" width="20" height="20" rx="3"/>
    <rect x="515" y="345" width="20" height="20" rx="3"/>
    <rect x="545" y="345" width="20" height="20" rx="3"/>
    <rect x="575" y="345" width="20" height="20" rx="3"/>
    <rect x="605" y="345" width="20" height="20" rx="3"/>
    <rect x="485" y="375" width="20" height="20" rx="3"/>
    <rect x="515" y="375" width="20" height="20" rx="3"/>
    <rect x="545" y="375" width="20" height="20" rx="3"/>
    <rect x="575" y="375" width="20" height="20" rx="3"/>
    <rect x="605" y="375" width="20" height="20" rx="3"/>
  </g>
  <text x="400" y="460" text-anchor="middle" font-family="sans-serif" font-size="20" fill="#64748b">Imagen pendiente: PC Pentium 1 + monitor CRT</text>
</svg>
